<svg xmlns="http://www.w3.org/2000/svg" xmlns:xlink="http://www.w3.org/1999/xlink" contentStyleType="text/css" data-diagram-type="CLASS" height="342px" preserveAspectRatio="none" style="width:276px;height:342px;background:#FFFFFF;" version="1.1" viewBox="0 0 276 342" width="276px" zoomAndPan="magnify"><defs/><g><!--class AggregateRoot--><g class="entity" data-entity="AggregateRoot" data-source-line="1" data-uid="ent0002" id="entity_AggregateRoot"><rect fill="#F1F1F1" height="200.5433" rx="2.5" ry="2.5" style="stroke:#181818;stroke-width:0.5;" width="260.0511" x="9" y="7"/><ellipse cx="88.3937" cy="23" fill="#A9DCDF" rx="11" ry="11" style="stroke:#181818;stroke-width:1;"/><path d="M88.5031,18.3438 L87.3468,23.4219 L89.675,23.4219 L88.5031,18.3438 Z M87.0187,16.1094 L90.0031,16.1094 L93.3625,28.5 L90.9093,28.5 L90.1437,25.4375 L86.8625,25.4375 L86.1125,28.5 L83.675,28.5 L87.0187,16.1094 Z " fill="#000000"/><text fill="#000000" font-family="sans-serif" font-size="14" font-style="italic" lengthAdjust="spacing" textLength="92.7637" x="108.8937" y="28.432">AggregateRoot</text><line style="stroke:#181818;stroke-width:0.5;" x1="10" x2="268.0511" y1="39" y2="39"/><ellipse cx="20" cy="54.034" fill="none" rx="3" ry="3" style="stroke:#038048;stroke-width:1;"/><text fill="#000000" font-family="sans-serif" font-size="14" lengthAdjust="spacing" textLength="128.3095" x="29" y="57.9659">aggregateId: String</text><ellipse cx="20" cy="73.1019" fill="none" rx="3" ry="3" style="stroke:#038048;stroke-width:1;"/><text fill="#000000" font-family="sans-serif" font-size="14" lengthAdjust="spacing" textLength="146.3835" x="29" y="77.0339">aggregateType: String</text><ellipse cx="20" cy="92.1698" fill="none" rx="3" ry="3" style="stroke:#038048;stroke-width:1;"/><text fill="#000000" font-family="sans-serif" font-size="14" lengthAdjust="spacing" textLength="234.0511" x="29" y="96.1018">changes: MutableList\&lt;BaseEvent\&gt;</text><ellipse cx="20" cy="111.2377" fill="none" rx="3" ry="3" style="stroke:#038048;stroke-width:1;"/><text fill="#000000" font-family="sans-serif" font-size="14" lengthAdjust="spacing" textLength="74.0737" x="29" y="115.1697">version: Int</text><line style="stroke:#181818;stroke-width:1;" x1="10" x2="268.0511" y1="123.2717" y2="123.2717"/><polygon fill="#FFFF44" points="20,133.3056,24,137.3056,20,141.3056,16,137.3056" style="stroke:#B38D22;stroke-width:1;"/><text fill="#000000" font-family="sans-serif" font-size="14" lengthAdjust="spacing" textLength="228.3531" x="29" y="142.2376">whenEvent(event: BaseEvent): void</text><ellipse cx="20" cy="157.3735" fill="#84BE84" rx="3" ry="3" style="stroke:#038048;stroke-width:1;"/><text fill="#000000" font-family="sans-serif" font-size="14" lengthAdjust="spacing" textLength="191.4772" x="29" y="161.3055">apply(event: BaseEvent): void</text><ellipse cx="20" cy="176.4415" fill="#84BE84" rx="3" ry="3" style="stroke:#038048;stroke-width:1;"/><text fill="#000000" font-family="sans-serif" font-size="14" lengthAdjust="spacing" textLength="223.9991" x="29" y="180.3734">raiseEvent(event: BaseEvent): void</text><ellipse cx="20" cy="195.5094" fill="#84BE84" rx="3" ry="3" style="stroke:#038048;stroke-width:1;"/><text fill="#000000" font-family="sans-serif" font-size="14" lengthAdjust="spacing" textLength="132.6775" x="29" y="199.4414">clearChanges(): void</text></g><!--class BaseEvent--><g class="entity" data-entity="BaseEvent" data-source-line="13" data-uid="ent0003" id="entity_BaseEvent"><rect fill="#F1F1F1" height="48" rx="2.5" ry="2.5" style="stroke:#181818;stroke-width:0.5;" width="100.0537" x="89" y="287"/><ellipse cx="104" cy="303" fill="#ADD1B2" rx="11" ry="11" style="stroke:#181818;stroke-width:1;"/><path d="M106.9688,308.6406 Q106.3906,308.9375 105.75,309.0781 Q105.1094,309.2344 104.4063,309.2344 Q101.9063,309.2344 100.5781,307.5938 Q99.2656,305.9375 99.2656,302.8125 Q99.2656,299.6875 100.5781,298.0313 Q101.9063,296.375 104.4063,296.375 Q105.1094,296.375 105.75,296.5313 Q106.4063,296.6875 106.9688,296.9844 L106.9688,299.7031 Q106.3438,299.125 105.75,298.8594 Q105.1563,298.5781 104.5313,298.5781 Q103.1875,298.5781 102.5,299.6563 Q101.8125,300.7188 101.8125,302.8125 Q101.8125,304.9063 102.5,305.9844 Q103.1875,307.0469 104.5313,307.0469 Q105.1563,307.0469 105.75,306.7813 Q106.3438,306.5 106.9688,305.9219 L106.9688,308.6406 Z " fill="#000000"/><text fill="#000000" font-family="sans-serif" font-size="14" lengthAdjust="spacing" textLength="68.0537" x="118" y="308.432">BaseEvent</text><line style="stroke:#181818;stroke-width:0.5;" x1="90" x2="188.0537" y1="319" y2="319"/><line style="stroke:#181818;stroke-width:0.5;" x1="90" x2="188.0537" y1="327" y2="327"/></g><!--link AggregateRoot to BaseEvent--><g class="link" data-entity-1="AggregateRoot" data-entity-2="BaseEvent" data-source-line="15" data-uid="lnk4" id="link_AggregateRoot_BaseEvent"><path codeLine="15" d="M139,208.07 C139,237.62 139,261.3 139,280.95" fill="none" id="AggregateRoot-to-BaseEvent" style="stroke:#181818;stroke-width:1;"/><polygon fill="#181818" points="139,286.95,143,277.95,139,281.95,135,277.95,139,286.95" style="stroke:#181818;stroke-width:1;"/><text fill="#000000" font-family="sans-serif" font-size="13" lengthAdjust="spacing" textLength="27.82" x="140" y="252.897">uses</text><text fill="#000000" font-family="sans-serif" font-size="13" lengthAdjust="spacing" textLength="7.436" x="131.7778" y="229.3342">1</text><text fill="#000000" font-family="sans-serif" font-size="13" lengthAdjust="spacing" textLength="7.163" x="131.0741" y="275.1941">*</text></g><!--SRC=[VP0x2y9048Jx-nLBR7nWONj8GCKYe8rQfjd4vJmuBk5sZGJnlvk7yT7OBEpiD-mmcB44p0LoXyomCYQGGQ53KGZS5S0C1oavQpXAiDxyoAUwfEz3Va5lY3NihuAPevrbIPThPDfMv2MDMwYYmBRm6X8lpJwVDsDqkv3lc36rKyFRDD5G5VRS_IrBL_y30jgN-8_A7M7Oz577W_vGgg_XxL3gjv5e4JLXOuYcqGS23LScVW80]--></g></svg>