<svg xmlns="http://www.w3.org/2000/svg" xmlns:xlink="http://www.w3.org/1999/xlink" contentStyleType="text/css" data-diagram-type="CLASS" height="214px" preserveAspectRatio="none" style="width:420px;height:214px;background:#FFFFFF;" version="1.1" viewBox="0 0 420 214" width="420px" zoomAndPan="magnify"><defs/><g><!--class Event--><g class="entity" data-entity="Event" data-source-line="1" data-uid="ent0002" id="entity_Event"><rect fill="#F1F1F1" height="200.5433" rx="2.5" ry="2.5" style="stroke:#181818;stroke-width:0.5;" width="206.3753" x="7" y="7"/><ellipse cx="87.6887" cy="23" fill="#ADD1B2" rx="11" ry="11" style="stroke:#181818;stroke-width:1;"/><path d="M90.6575,28.6406 Q90.0794,28.9375 89.4387,29.0781 Q88.7981,29.2344 88.095,29.2344 Q85.595,29.2344 84.2669,27.5938 Q82.9544,25.9375 82.9544,22.8125 Q82.9544,19.6875 84.2669,18.0313 Q85.595,16.375 88.095,16.375 Q88.7981,16.375 89.4387,16.5313 Q90.095,16.6875 90.6575,16.9844 L90.6575,19.7031 Q90.0325,19.125 89.4387,18.8594 Q88.845,18.5781 88.22,18.5781 Q86.8762,18.5781 86.1887,19.6563 Q85.5012,20.7188 85.5012,22.8125 Q85.5012,24.9063 86.1887,25.9844 Q86.8762,27.0469 88.22,27.0469 Q88.845,27.0469 89.4387,26.7813 Q90.0325,26.5 90.6575,25.9219 L90.6575,28.6406 Z " fill="#000000"/><text fill="#000000" font-family="sans-serif" font-size="14" lengthAdjust="spacing" textLength="36.4978" x="108.1887" y="28.432">Event</text><line style="stroke:#181818;stroke-width:0.5;" x1="8" x2="212.3753" y1="39" y2="39"/><rect fill="none" height="6" style="stroke:#C82930;stroke-width:1;" width="6" x="15" y="51.034"/><text fill="#000000" font-family="sans-serif" font-size="14" lengthAdjust="spacing" textLength="62.6498" x="27" y="57.9659">id : String</text><rect fill="none" height="6" style="stroke:#C82930;stroke-width:1;" width="6" x="15" y="70.1019"/><text fill="#000000" font-family="sans-serif" font-size="14" lengthAdjust="spacing" textLength="79.1277" x="27" y="77.0339">type : String</text><rect fill="none" height="6" style="stroke:#C82930;stroke-width:1;" width="6" x="15" y="89.1698"/><text fill="#000000" font-family="sans-serif" font-size="14" lengthAdjust="spacing" textLength="131.9495" x="27" y="96.1018">aggregateId : String</text><rect fill="none" height="6" style="stroke:#C82930;stroke-width:1;" width="6" x="15" y="108.2377"/><text fill="#000000" font-family="sans-serif" font-size="14" lengthAdjust="spacing" textLength="150.0234" x="27" y="115.1697">aggregateType : String</text><rect fill="none" height="6" style="stroke:#C82930;stroke-width:1;" width="6" x="15" y="127.3056"/><text fill="#000000" font-family="sans-serif" font-size="14" lengthAdjust="spacing" textLength="77.7137" x="27" y="134.2376">version : Int</text><rect fill="none" height="6" style="stroke:#C82930;stroke-width:1;" width="6" x="15" y="146.3735"/><text fill="#000000" font-family="sans-serif" font-size="14" lengthAdjust="spacing" textLength="105.0976" x="27" y="153.3055">data : ByteArray</text><rect fill="none" height="6" style="stroke:#C82930;stroke-width:1;" width="6" x="15" y="165.4415"/><text fill="#000000" font-family="sans-serif" font-size="14" lengthAdjust="spacing" textLength="138.9915" x="27" y="172.3734">metadata : ByteArray</text><rect fill="none" height="6" style="stroke:#C82930;stroke-width:1;" width="6" x="15" y="184.5094"/><text fill="#000000" font-family="sans-serif" font-size="14" lengthAdjust="spacing" textLength="180.3753" x="27" y="191.4414">timeStamp : LocalDateTime</text><line style="stroke:#181818;stroke-width:0.5;" x1="8" x2="212.3753" y1="199.5433" y2="199.5433"/></g><!--class BaseEvent--><g class="entity" data-entity="BaseEvent" data-source-line="12" data-uid="ent0003" id="entity_BaseEvent"><rect fill="#F1F1F1" height="86.1358" rx="2.5" ry="2.5" style="stroke:#181818;stroke-width:0.5;" width="164.9915" x="248.5" y="64.5"/><ellipse cx="295.3159" cy="80.5" fill="#A9DCDF" rx="11" ry="11" style="stroke:#181818;stroke-width:1;"/><path d="M295.4252,75.8438 L294.269,80.9219 L296.5971,80.9219 L295.4252,75.8438 Z M293.9409,73.6094 L296.9252,73.6094 L300.2846,86 L297.8315,86 L297.0659,82.9375 L293.7846,82.9375 L293.0346,86 L290.5971,86 L293.9409,73.6094 Z " fill="#000000"/><text fill="#000000" font-family="sans-serif" font-size="14" font-style="italic" lengthAdjust="spacing" textLength="62.8598" x="315.8159" y="85.932">BaseEvent</text><line style="stroke:#181818;stroke-width:0.5;" x1="249.5" x2="412.4915" y1="96.5" y2="96.5"/><rect fill="none" height="6" style="stroke:#C82930;stroke-width:1;" width="6" x="256.5" y="108.534"/><text fill="#000000" font-family="sans-serif" font-size="14" lengthAdjust="spacing" textLength="131.9495" x="268.5" y="115.4659">aggregateId : String</text><rect fill="none" height="6" style="stroke:#C82930;stroke-width:1;" width="6" x="256.5" y="127.6019"/><text fill="#000000" font-family="sans-serif" font-size="14" lengthAdjust="spacing" textLength="138.9915" x="268.5" y="134.5339">metadata : ByteArray</text><line style="stroke:#181818;stroke-width:0.5;" x1="249.5" x2="412.4915" y1="142.6358" y2="142.6358"/></g><!--SRC=[VOz12i8m44NtFSLSm0kui-YYuAvUu9iC8T2aPJ8KWdXtno28gDqC_FUP-VE9t8HIwBHoLhfrH3kAdlOqgiGScjQwy2T12C81oeF_Oro-TbQM4kTiSCZQY8V2P5-L3oAe3IPM_3Gq9XuLQJ7dF3jCnsUCGNFldGqYN8iAdBuwzIZyxhNnzqQktNu0]--></g></svg>