<svg xmlns="http://www.w3.org/2000/svg" xmlns:xlink="http://www.w3.org/1999/xlink" contentStyleType="text/css" data-diagram-type="CLASS" height="202px" preserveAspectRatio="none" style="width:227px;height:202px;background:#FFFFFF;" version="1.1" viewBox="0 0 227 202" width="227px" zoomAndPan="magnify"><defs/><g><!--class Snapshot--><g class="entity" data-entity="Snapshot" data-source-line="1" data-uid="ent0002" id="entity_Snapshot"><rect fill="#F1F1F1" height="181.4754" rx="2.5" ry="2.5" style="stroke:#181818;stroke-width:0.5;" width="206.3753" x="7" y="7"/><ellipse cx="75.0958" cy="23" fill="#ADD1B2" rx="11" ry="11" style="stroke:#181818;stroke-width:1;"/><path d="M78.0645,28.6406 Q77.4864,28.9375 76.8458,29.0781 Q76.2051,29.2344 75.502,29.2344 Q73.002,29.2344 71.6739,27.5938 Q70.3614,25.9375 70.3614,22.8125 Q70.3614,19.6875 71.6739,18.0313 Q73.002,16.375 75.502,16.375 Q76.2051,16.375 76.8458,16.5313 Q77.502,16.6875 78.0645,16.9844 L78.0645,19.7031 Q77.4395,19.125 76.8458,18.8594 Q76.252,18.5781 75.627,18.5781 Q74.2833,18.5781 73.5958,19.6563 Q72.9083,20.7188 72.9083,22.8125 Q72.9083,24.9063 73.5958,25.9844 Q74.2833,27.0469 75.627,27.0469 Q76.252,27.0469 76.8458,26.7813 Q77.4395,26.5 78.0645,25.9219 L78.0645,28.6406 Z " fill="#000000"/><text fill="#000000" font-family="sans-serif" font-size="14" lengthAdjust="spacing" textLength="61.6838" x="95.5958" y="28.432">Snapshot</text><line style="stroke:#181818;stroke-width:0.5;" x1="8" x2="212.3753" y1="39" y2="39"/><ellipse cx="18" cy="54.034" fill="none" rx="3" ry="3" style="stroke:#038048;stroke-width:1;"/><text fill="#000000" font-family="sans-serif" font-size="14" lengthAdjust="spacing" textLength="58.6878" x="27" y="57.9659">id : UUID</text><ellipse cx="18" cy="73.1019" fill="none" rx="3" ry="3" style="stroke:#038048;stroke-width:1;"/><text fill="#000000" font-family="sans-serif" font-size="14" lengthAdjust="spacing" textLength="131.9495" x="27" y="77.0339">aggregateId : String</text><ellipse cx="18" cy="92.1698" fill="none" rx="3" ry="3" style="stroke:#038048;stroke-width:1;"/><text fill="#000000" font-family="sans-serif" font-size="14" lengthAdjust="spacing" textLength="150.0234" x="27" y="96.1018">aggregateType : String</text><ellipse cx="18" cy="111.2377" fill="none" rx="3" ry="3" style="stroke:#038048;stroke-width:1;"/><text fill="#000000" font-family="sans-serif" font-size="14" lengthAdjust="spacing" textLength="105.0976" x="27" y="115.1697">data : ByteArray</text><ellipse cx="18" cy="130.3056" fill="none" rx="3" ry="3" style="stroke:#038048;stroke-width:1;"/><text fill="#000000" font-family="sans-serif" font-size="14" lengthAdjust="spacing" textLength="140.6015" x="27" y="134.2376">metaData : ByteArray</text><ellipse cx="18" cy="149.3735" fill="none" rx="3" ry="3" style="stroke:#038048;stroke-width:1;"/><text fill="#000000" font-family="sans-serif" font-size="14" lengthAdjust="spacing" textLength="77.7137" x="27" y="153.3055">version : Int</text><ellipse cx="18" cy="168.4415" fill="none" rx="3" ry="3" style="stroke:#038048;stroke-width:1;"/><text fill="#000000" font-family="sans-serif" font-size="14" lengthAdjust="spacing" textLength="180.3753" x="27" y="172.3734">timeStamp : LocalDateTime</text><line style="stroke:#181818;stroke-width:0.5;" x1="8" x2="212.3753" y1="180.4754" y2="180.4754"/></g><!--SRC=[RSqz2iCm38RXlQVGtXjaQ_5YwERa01-9S0tn3xOecDAxHm5FeTg-znb4jEveZLn2QUyizBsHtft2HXCjYpLZm_lA7iBs12Sr97-bkHU-uWQ1jcSNVjIAFd9aWVbF7wujvAHYaumc8R8JnABrbLVivdodKVrt0000]--></g></svg>